# xmcd
#
# Track frame offsets: 
#        150
#        15375
#        28993
#        51268
#        68809
#        87749
#        110547
#        126047
#        140367
#        153342
#        167418
#        184023
#        201886
#        216286
#        227638
#        245828
#        264514
#        281069
#
# Disc length: 3959 seconds
#
# Revision: 0
# Processed by: cddbd v1.5.2PL0 Copyright (c) Steve Scherf et al.
# Submitted via: ExactAudioCopy v0.99pb4
#
DISCID=080f7512
DTITLE=Erland von Koch - 18 monologues for solo instruments cd 2
DYEAR=1900
DGENRE=Classical
TTITLE0=Monologue no 10 for guitar I. Lento ed espressivo
TTITLE1=II. Allegretto
TTITLE2=Monologue no 11 for percussion I. Moderato
TTITLE3=II. Vivace
TTITLE4=Monologue no 12 for harp "La primavera" I. Andante con moto
TTITLE5=II. Allegro, poco vivace
TTITLE6=Monologue no 13 for piano I. Andantino pastorale
TTITLE7=II. Allegro vivace
TTITLE8=Monologue no 14 for voice I. Lento ed espressivo
TTITLE9=II. Allegro giocoso
TTITLE10=Monologue no 15 for violin "On a swedish folk tune" I. Andant
TTITLE10=e espressivo
TTITLE11=II. Allegro moderato e ritmico
TTITLE12=Monologue no 16 for viola "On a swedish folk tune" I. Andante
TTITLE12=sostenuto
TTITLE13=II. Allegro ritmico ed energico
TTITLE14=Monologue no 17 for violoncello "On a swedish folk tune" I. A
TTITLE14=ndante semplice
TTITLE15=II. Allegro vivace
TTITLE16=Monologue no 18 for double bass "On a swedish folk tune" I. A
TTITLE16=ndante
TTITLE17=II. Allegro molto e ritmico
EXTD=
EXTT0=
EXTT1=
EXTT2=
EXTT3=
EXTT4=
EXTT5=
EXTT6=
EXTT7=
EXTT8=
EXTT9=
EXTT10=
EXTT11=
EXTT12=
EXTT13=
EXTT14=
EXTT15=
EXTT16=
EXTT17=
PLAYORDER=
